<svg version="1.1" xmlns="http://www.w3.org/2000/svg" xmlns:xlink="http://www.w3.org/1999/xlink" width="2000" height="2000"><defs/><g transform="scale(2,2)"><g id="background-f837c7cd"><rect fill="white" stroke="none" x="0" y="0" width="1000" height="1000" class="dcg-svg-background"/></g><g id="graphpaper-f837c7cd"><g id="grid-f837c7cd"><g><path fill="none" stroke="rgb(0,0,0)" class="dcg-svg-minor-gridline" paint-order="fill stroke markers" d=" M 41.5 0 L 41.5 1000" stroke-opacity="0.2" stroke-miterlimit="10" stroke-dasharray=""/><path fill="none" stroke="rgb(0,0,0)" class="dcg-svg-minor-gridline" paint-order="fill stroke markers" d=" M 83.5 0 L 83.5 1000" stroke-opacity="0.2" stroke-miterlimit="10" stroke-dasharray=""/><path fill="none" stroke="rgb(0,0,0)" class="dcg-svg-minor-gridline" paint-order="fill stroke markers" d=" M 125.5 0 L 125.5 1000" stroke-opacity="0.2" stroke-miterlimit="10" stroke-dasharray=""/><path fill="none" stroke="rgb(0,0,0)" class="dcg-svg-minor-gridline" paint-order="fill stroke markers" d=" M 166.5 0 L 166.5 1000" stroke-opacity="0.2" stroke-miterlimit="10" stroke-dasharray=""/><path fill="none" stroke="rgb(0,0,0)" class="dcg-svg-minor-gridline" paint-order="fill stroke markers" d=" M 208.5 0 L 208.5 1000" stroke-opacity="0.2" stroke-miterlimit="10" stroke-dasharray=""/><path fill="none" stroke="rgb(0,0,0)" class="dcg-svg-minor-gridline" paint-order="fill stroke markers" d=" M 250.5 0 L 250.5 1000" stroke-opacity="0.2" stroke-miterlimit="10" stroke-dasharray=""/><path fill="none" stroke="rgb(0,0,0)" class="dcg-svg-minor-gridline" paint-order="fill stroke markers" d=" M 291.5 0 L 291.5 1000" stroke-opacity="0.2" stroke-miterlimit="10" stroke-dasharray=""/><path fill="none" stroke="rgb(0,0,0)" class="dcg-svg-minor-gridline" paint-order="fill stroke markers" d=" M 333.5 0 L 333.5 1000" stroke-opacity="0.2" stroke-miterlimit="10" stroke-dasharray=""/><path fill="none" stroke="rgb(0,0,0)" class="dcg-svg-minor-gridline" paint-order="fill stroke markers" d=" M 375.5 0 L 375.5 1000" stroke-opacity="0.2" stroke-miterlimit="10" stroke-dasharray=""/><path fill="none" stroke="rgb(0,0,0)" class="dcg-svg-minor-gridline" paint-order="fill stroke markers" d=" M 416.5 0 L 416.5 1000" stroke-opacity="0.2" stroke-miterlimit="10" stroke-dasharray=""/><path fill="none" stroke="rgb(0,0,0)" class="dcg-svg-minor-gridline" paint-order="fill stroke markers" d=" M 458.5 0 L 458.5 1000" stroke-opacity="0.2" stroke-miterlimit="10" stroke-dasharray=""/><path fill="none" stroke="rgb(0,0,0)" class="dcg-svg-minor-gridline" paint-order="fill stroke markers" d=" M 541.5 0 L 541.5 1000" stroke-opacity="0.2" stroke-miterlimit="10" stroke-dasharray=""/><path fill="none" stroke="rgb(0,0,0)" class="dcg-svg-minor-gridline" paint-order="fill stroke markers" d=" M 583.5 0 L 583.5 1000" stroke-opacity="0.2" stroke-miterlimit="10" stroke-dasharray=""/><path fill="none" stroke="rgb(0,0,0)" class="dcg-svg-minor-gridline" paint-order="fill stroke markers" d=" M 625.5 0 L 625.5 1000" stroke-opacity="0.2" stroke-miterlimit="10" stroke-dasharray=""/><path fill="none" stroke="rgb(0,0,0)" class="dcg-svg-minor-gridline" paint-order="fill stroke markers" d=" M 666.5 0 L 666.5 1000" stroke-opacity="0.2" stroke-miterlimit="10" stroke-dasharray=""/><path fill="none" stroke="rgb(0,0,0)" class="dcg-svg-minor-gridline" paint-order="fill stroke markers" d=" M 708.5 0 L 708.5 1000" stroke-opacity="0.2" stroke-miterlimit="10" stroke-dasharray=""/><path fill="none" stroke="rgb(0,0,0)" class="dcg-svg-minor-gridline" paint-order="fill stroke markers" d=" M 750.5 0 L 750.5 1000" stroke-opacity="0.2" stroke-miterlimit="10" stroke-dasharray=""/><path fill="none" stroke="rgb(0,0,0)" class="dcg-svg-minor-gridline" paint-order="fill stroke markers" d=" M 791.5 0 L 791.5 1000" stroke-opacity="0.2" stroke-miterlimit="10" stroke-dasharray=""/><path fill="none" stroke="rgb(0,0,0)" class="dcg-svg-minor-gridline" paint-order="fill stroke markers" d=" M 833.5 0 L 833.5 1000" stroke-opacity="0.2" stroke-miterlimit="10" stroke-dasharray=""/><path fill="none" stroke="rgb(0,0,0)" class="dcg-svg-minor-gridline" paint-order="fill stroke markers" d=" M 875.5 0 L 875.5 1000" stroke-opacity="0.2" stroke-miterlimit="10" stroke-dasharray=""/><path fill="none" stroke="rgb(0,0,0)" class="dcg-svg-minor-gridline" paint-order="fill stroke markers" d=" M 916.5 0 L 916.5 1000" stroke-opacity="0.2" stroke-miterlimit="10" stroke-dasharray=""/><path fill="none" stroke="rgb(0,0,0)" class="dcg-svg-minor-gridline" paint-order="fill stroke markers" d=" M 958.5 0 L 958.5 1000" stroke-opacity="0.2" stroke-miterlimit="10" stroke-dasharray=""/><path fill="none" stroke="rgb(0,0,0)" class="dcg-svg-minor-gridline" paint-order="fill stroke markers" d=" M 0 979.5 L 1000 979.5" stroke-opacity="0.2" stroke-miterlimit="10" stroke-dasharray=""/><path fill="none" stroke="rgb(0,0,0)" class="dcg-svg-minor-gridline" paint-order="fill stroke markers" d=" M 0 958.5 L 1000 958.5" stroke-opacity="0.2" stroke-miterlimit="10" stroke-dasharray=""/><path fill="none" stroke="rgb(0,0,0)" class="dcg-svg-minor-gridline" paint-order="fill stroke markers" d=" M 0 937.5 L 1000 937.5" stroke-opacity="0.2" stroke-miterlimit="10" stroke-dasharray=""/><path fill="none" stroke="rgb(0,0,0)" class="dcg-svg-minor-gridline" paint-order="fill stroke markers" d=" M 0 916.5 L 1000 916.5" stroke-opacity="0.2" stroke-miterlimit="10" stroke-dasharray=""/><path fill="none" stroke="rgb(0,0,0)" class="dcg-svg-minor-gridline" paint-order="fill stroke markers" d=" M 0 895.5 L 1000 895.5" stroke-opacity="0.2" stroke-miterlimit="10" stroke-dasharray=""/><path fill="none" stroke="rgb(0,0,0)" class="dcg-svg-minor-gridline" paint-order="fill stroke markers" d=" M 0 875.5 L 1000 875.5" stroke-opacity="0.2" stroke-miterlimit="10" stroke-dasharray=""/><path fill="none" stroke="rgb(0,0,0)" class="dcg-svg-minor-gridline" paint-order="fill stroke markers" d=" M 0 854.5 L 1000 854.5" stroke-opacity="0.2" stroke-miterlimit="10" stroke-dasharray=""/><path fill="none" stroke="rgb(0,0,0)" class="dcg-svg-minor-gridline" paint-order="fill stroke markers" d=" M 0 833.5 L 1000 833.5" stroke-opacity="0.2" stroke-miterlimit="10" stroke-dasharray=""/><path fill="none" stroke="rgb(0,0,0)" class="dcg-svg-minor-gridline" paint-order="fill stroke markers" d=" M 0 812.5 L 1000 812.5" stroke-opacity="0.2" stroke-miterlimit="10" stroke-dasharray=""/><path fill="none" stroke="rgb(0,0,0)" class="dcg-svg-minor-gridline" paint-order="fill stroke markers" d=" M 0 791.5 L 1000 791.5" stroke-opacity="0.2" stroke-miterlimit="10" stroke-dasharray=""/><path fill="none" stroke="rgb(0,0,0)" class="dcg-svg-minor-gridline" paint-order="fill stroke markers" d=" M 0 770.5 L 1000 770.5" stroke-opacity="0.2" stroke-miterlimit="10" stroke-dasharray=""/><path fill="none" stroke="rgb(0,0,0)" class="dcg-svg-minor-gridline" paint-order="fill stroke markers" d=" M 0 750.5 L 1000 750.5" stroke-opacity="0.2" stroke-miterlimit="10" stroke-dasharray=""/><path fill="none" stroke="rgb(0,0,0)" class="dcg-svg-minor-gridline" paint-order="fill stroke markers" d=" M 0 729.5 L 1000 729.5" stroke-opacity="0.2" stroke-miterlimit="10" stroke-dasharray=""/><path fill="none" stroke="rgb(0,0,0)" class="dcg-svg-minor-gridline" paint-order="fill stroke markers" d=" M 0 708.5 L 1000 708.5" stroke-opacity="0.2" stroke-miterlimit="10" stroke-dasharray=""/><path fill="none" stroke="rgb(0,0,0)" class="dcg-svg-minor-gridline" paint-order="fill stroke markers" d=" M 0 687.5 L 1000 687.5" stroke-opacity="0.2" stroke-miterlimit="10" stroke-dasharray=""/><path fill="none" stroke="rgb(0,0,0)" class="dcg-svg-minor-gridline" paint-order="fill stroke markers" d=" M 0 666.5 L 1000 666.5" stroke-opacity="0.2" stroke-miterlimit="10" stroke-dasharray=""/><path fill="none" stroke="rgb(0,0,0)" class="dcg-svg-minor-gridline" paint-order="fill stroke markers" d=" M 0 645.5 L 1000 645.5" stroke-opacity="0.2" stroke-miterlimit="10" stroke-dasharray=""/><path fill="none" stroke="rgb(0,0,0)" class="dcg-svg-minor-gridline" paint-order="fill stroke markers" d=" M 0 625.5 L 1000 625.5" stroke-opacity="0.2" stroke-miterlimit="10" stroke-dasharray=""/><path fill="none" stroke="rgb(0,0,0)" class="dcg-svg-minor-gridline" paint-order="fill stroke markers" d=" M 0 604.5 L 1000 604.5" stroke-opacity="0.2" stroke-miterlimit="10" stroke-dasharray=""/><path fill="none" stroke="rgb(0,0,0)" class="dcg-svg-minor-gridline" paint-order="fill stroke markers" d=" M 0 583.5 L 1000 583.5" stroke-opacity="0.2" stroke-miterlimit="10" stroke-dasharray=""/><path fill="none" stroke="rgb(0,0,0)" class="dcg-svg-minor-gridline" paint-order="fill stroke markers" d=" M 0 562.5 L 1000 562.5" stroke-opacity="0.2" stroke-miterlimit="10" stroke-dasharray=""/><path fill="none" stroke="rgb(0,0,0)" class="dcg-svg-minor-gridline" paint-order="fill stroke markers" d=" M 0 541.5 L 1000 541.5" stroke-opacity="0.2" stroke-miterlimit="10" stroke-dasharray=""/><path fill="none" stroke="rgb(0,0,0)" class="dcg-svg-minor-gridline" paint-order="fill stroke markers" d=" M 0 520.5 L 1000 520.5" stroke-opacity="0.2" stroke-miterlimit="10" stroke-dasharray=""/><path fill="none" stroke="rgb(0,0,0)" class="dcg-svg-minor-gridline" paint-order="fill stroke markers" d=" M 0 479.5 L 1000 479.5" stroke-opacity="0.2" stroke-miterlimit="10" stroke-dasharray=""/><path fill="none" stroke="rgb(0,0,0)" class="dcg-svg-minor-gridline" paint-order="fill stroke markers" d=" M 0 458.5 L 1000 458.5" stroke-opacity="0.2" stroke-miterlimit="10" stroke-dasharray=""/><path fill="none" stroke="rgb(0,0,0)" class="dcg-svg-minor-gridline" paint-order="fill stroke markers" d=" M 0 437.5 L 1000 437.5" stroke-opacity="0.2" stroke-miterlimit="10" stroke-dasharray=""/><path fill="none" stroke="rgb(0,0,0)" class="dcg-svg-minor-gridline" paint-order="fill stroke markers" d=" M 0 416.5 L 1000 416.5" stroke-opacity="0.2" stroke-miterlimit="10" stroke-dasharray=""/><path fill="none" stroke="rgb(0,0,0)" class="dcg-svg-minor-gridline" paint-order="fill stroke markers" d=" M 0 395.5 L 1000 395.5" stroke-opacity="0.2" stroke-miterlimit="10" stroke-dasharray=""/><path fill="none" stroke="rgb(0,0,0)" class="dcg-svg-minor-gridline" paint-order="fill stroke markers" d=" M 0 375.5 L 1000 375.5" stroke-opacity="0.2" stroke-miterlimit="10" stroke-dasharray=""/><path fill="none" stroke="rgb(0,0,0)" class="dcg-svg-minor-gridline" paint-order="fill stroke markers" d=" M 0 354.5 L 1000 354.5" stroke-opacity="0.2" stroke-miterlimit="10" stroke-dasharray=""/><path fill="none" stroke="rgb(0,0,0)" class="dcg-svg-minor-gridline" paint-order="fill stroke markers" d=" M 0 333.5 L 1000 333.5" stroke-opacity="0.2" stroke-miterlimit="10" stroke-dasharray=""/><path fill="none" stroke="rgb(0,0,0)" class="dcg-svg-minor-gridline" paint-order="fill stroke markers" d=" M 0 312.5 L 1000 312.5" stroke-opacity="0.2" stroke-miterlimit="10" stroke-dasharray=""/><path fill="none" stroke="rgb(0,0,0)" class="dcg-svg-minor-gridline" paint-order="fill stroke markers" d=" M 0 291.5 L 1000 291.5" stroke-opacity="0.2" stroke-miterlimit="10" stroke-dasharray=""/><path fill="none" stroke="rgb(0,0,0)" class="dcg-svg-minor-gridline" paint-order="fill stroke markers" d=" M 0 270.5 L 1000 270.5" stroke-opacity="0.2" stroke-miterlimit="10" stroke-dasharray=""/><path fill="none" stroke="rgb(0,0,0)" class="dcg-svg-minor-gridline" paint-order="fill stroke markers" d=" M 0 250.5 L 1000 250.5" stroke-opacity="0.2" stroke-miterlimit="10" stroke-dasharray=""/><path fill="none" stroke="rgb(0,0,0)" class="dcg-svg-minor-gridline" paint-order="fill stroke markers" d=" M 0 229.5 L 1000 229.5" stroke-opacity="0.2" stroke-miterlimit="10" stroke-dasharray=""/><path fill="none" stroke="rgb(0,0,0)" class="dcg-svg-minor-gridline" paint-order="fill stroke markers" d=" M 0 208.5 L 1000 208.5" stroke-opacity="0.2" stroke-miterlimit="10" stroke-dasharray=""/><path fill="none" stroke="rgb(0,0,0)" class="dcg-svg-minor-gridline" paint-order="fill stroke markers" d=" M 0 187.5 L 1000 187.5" stroke-opacity="0.2" stroke-miterlimit="10" stroke-dasharray=""/><path fill="none" stroke="rgb(0,0,0)" class="dcg-svg-minor-gridline" paint-order="fill stroke markers" d=" M 0 166.5 L 1000 166.5" stroke-opacity="0.2" stroke-miterlimit="10" stroke-dasharray=""/><path fill="none" stroke="rgb(0,0,0)" class="dcg-svg-minor-gridline" paint-order="fill stroke markers" d=" M 0 145.5 L 1000 145.5" stroke-opacity="0.2" stroke-miterlimit="10" stroke-dasharray=""/><path fill="none" stroke="rgb(0,0,0)" class="dcg-svg-minor-gridline" paint-order="fill stroke markers" d=" M 0 125.5 L 1000 125.5" stroke-opacity="0.2" stroke-miterlimit="10" stroke-dasharray=""/><path fill="none" stroke="rgb(0,0,0)" class="dcg-svg-minor-gridline" paint-order="fill stroke markers" d=" M 0 104.5 L 1000 104.5" stroke-opacity="0.2" stroke-miterlimit="10" stroke-dasharray=""/><path fill="none" stroke="rgb(0,0,0)" class="dcg-svg-minor-gridline" paint-order="fill stroke markers" d=" M 0 83.5 L 1000 83.5" stroke-opacity="0.2" stroke-miterlimit="10" stroke-dasharray=""/><path fill="none" stroke="rgb(0,0,0)" class="dcg-svg-minor-gridline" paint-order="fill stroke markers" d=" M 0 62.5 L 1000 62.5" stroke-opacity="0.2" stroke-miterlimit="10" stroke-dasharray=""/><path fill="none" stroke="rgb(0,0,0)" class="dcg-svg-minor-gridline" paint-order="fill stroke markers" d=" M 0 41.5 L 1000 41.5" stroke-opacity="0.2" stroke-miterlimit="10" stroke-dasharray=""/><path fill="none" stroke="rgb(0,0,0)" class="dcg-svg-minor-gridline" paint-order="fill stroke markers" d=" M 0 20.5 L 1000 20.5" stroke-opacity="0.2" stroke-miterlimit="10" stroke-dasharray=""/><path fill="none" stroke="rgb(0,0,0)" class="dcg-svg-major-gridline" paint-order="fill stroke markers" d=" M 166.5 0 L 166.5 1000" stroke-opacity="0.2500000000000001" stroke-miterlimit="10" stroke-dasharray=""/><path fill="none" stroke="rgb(0,0,0)" class="dcg-svg-major-gridline" paint-order="fill stroke markers" d=" M 333.5 0 L 333.5 1000" stroke-opacity="0.2500000000000001" stroke-miterlimit="10" stroke-dasharray=""/><path fill="none" stroke="rgb(0,0,0)" class="dcg-svg-major-gridline" paint-order="fill stroke markers" d=" M 666.5 0 L 666.5 1000" stroke-opacity="0.2500000000000001" stroke-miterlimit="10" stroke-dasharray=""/><path fill="none" stroke="rgb(0,0,0)" class="dcg-svg-major-gridline" paint-order="fill stroke markers" d=" M 833.5 0 L 833.5 1000" stroke-opacity="0.2500000000000001" stroke-miterlimit="10" stroke-dasharray=""/><path fill="none" stroke="rgb(0,0,0)" class="dcg-svg-major-gridline" paint-order="fill stroke markers" d=" M 0 916.5 L 1000 916.5" stroke-opacity="0.2500000000000001" stroke-miterlimit="10" stroke-dasharray=""/><path fill="none" stroke="rgb(0,0,0)" class="dcg-svg-major-gridline" paint-order="fill stroke markers" d=" M 0 833.5 L 1000 833.5" stroke-opacity="0.2500000000000001" stroke-miterlimit="10" stroke-dasharray=""/><path fill="none" stroke="rgb(0,0,0)" class="dcg-svg-major-gridline" paint-order="fill stroke markers" d=" M 0 750.5 L 1000 750.5" stroke-opacity="0.2500000000000001" stroke-miterlimit="10" stroke-dasharray=""/><path fill="none" stroke="rgb(0,0,0)" class="dcg-svg-major-gridline" paint-order="fill stroke markers" d=" M 0 666.5 L 1000 666.5" stroke-opacity="0.2500000000000001" stroke-miterlimit="10" stroke-dasharray=""/><path fill="none" stroke="rgb(0,0,0)" class="dcg-svg-major-gridline" paint-order="fill stroke markers" d=" M 0 583.5 L 1000 583.5" stroke-opacity="0.2500000000000001" stroke-miterlimit="10" stroke-dasharray=""/><path fill="none" stroke="rgb(0,0,0)" class="dcg-svg-major-gridline" paint-order="fill stroke markers" d=" M 0 416.5 L 1000 416.5" stroke-opacity="0.2500000000000001" stroke-miterlimit="10" stroke-dasharray=""/><path fill="none" stroke="rgb(0,0,0)" class="dcg-svg-major-gridline" paint-order="fill stroke markers" d=" M 0 333.5 L 1000 333.5" stroke-opacity="0.2500000000000001" stroke-miterlimit="10" stroke-dasharray=""/><path fill="none" stroke="rgb(0,0,0)" class="dcg-svg-major-gridline" paint-order="fill stroke markers" d=" M 0 250.5 L 1000 250.5" stroke-opacity="0.2500000000000001" stroke-miterlimit="10" stroke-dasharray=""/><path fill="none" stroke="rgb(0,0,0)" class="dcg-svg-major-gridline" paint-order="fill stroke markers" d=" M 0 166.5 L 1000 166.5" stroke-opacity="0.2500000000000001" stroke-miterlimit="10" stroke-dasharray=""/><path fill="none" stroke="rgb(0,0,0)" class="dcg-svg-major-gridline" paint-order="fill stroke markers" d=" M 0 83.5 L 1000 83.5" stroke-opacity="0.2500000000000001" stroke-miterlimit="10" stroke-dasharray=""/></g></g><g id="axis-f837c7cd"><g id="yaxis-f837c7cd"><title>Y axis</title><g><path fill="none" stroke="rgb(0,0,0)" class="dcg-svg-axis-line" paint-order="fill stroke markers" d=" M 500 0 L 500 1000" stroke-opacity="0.9" stroke-miterlimit="10" stroke-width="1.5" stroke-dasharray=""/></g></g><g id="xaxis-f837c7cd"><title>X axis</title><g><path fill="none" stroke="rgb(0,0,0)" class="dcg-svg-axis-line" paint-order="fill stroke markers" d=" M 0 500 L 1000 500" stroke-opacity="0.9" stroke-miterlimit="10" stroke-width="1.5" stroke-dasharray=""/></g></g><g><g class="dcg-svg-axis-value"><text fill="none" stroke="#ffffff" font-family="Arial" font-size="14px" font-style="normal" font-weight="normal" text-decoration="normal" x="491.10693359375" y="515.808" text-anchor="middle" stroke-miterlimit="2" stroke-width="3" stroke-dasharray="">0</text><text fill="#000000" stroke="none" font-family="Arial" font-size="14px" font-style="normal" font-weight="normal" text-decoration="normal" x="491.10693359375" y="515.808" text-anchor="middle">0</text></g><g class="dcg-svg-axis-value dcg-svg-offcenter-axis-value"><text fill="none" stroke="#ffffff" font-family="Arial" font-size="14px" font-style="normal" font-weight="normal" text-decoration="normal" x="19.8916015625" y="515.808" text-anchor="middle" stroke-miterlimit="2" stroke-width="3" stroke-dasharray="">-3π/2</text><text fill="#000000" stroke="none" font-family="Arial" font-size="14px" font-style="normal" font-weight="normal" text-decoration="normal" x="19.8916015625" y="515.808" text-anchor="middle">-3π/2</text></g><g class="dcg-svg-axis-value"><text fill="none" stroke="#ffffff" font-family="Arial" font-size="14px" font-style="normal" font-weight="normal" text-decoration="normal" x="164.33561197916663" y="515.808" text-anchor="middle" stroke-miterlimit="2" stroke-width="3" stroke-dasharray="">-π</text><text fill="#000000" stroke="none" font-family="Arial" font-size="14px" font-style="normal" font-weight="normal" text-decoration="normal" x="164.33561197916663" y="515.808" text-anchor="middle">-π</text></g><g class="dcg-svg-axis-value"><text fill="none" stroke="#ffffff" font-family="Arial" font-size="14px" font-style="normal" font-weight="normal" text-decoration="normal" x="331.0022786458333" y="515.808" text-anchor="middle" stroke-miterlimit="2" stroke-width="3" stroke-dasharray="">-π/2</text><text fill="#000000" stroke="none" font-family="Arial" font-size="14px" font-style="normal" font-weight="normal" text-decoration="normal" x="331.0022786458333" y="515.808" text-anchor="middle">-π/2</text></g><g class="dcg-svg-axis-value"><text fill="none" stroke="#ffffff" font-family="Arial" font-size="14px" font-style="normal" font-weight="normal" text-decoration="normal" x="666.6666666666667" y="515.808" text-anchor="middle" stroke-miterlimit="2" stroke-width="3" stroke-dasharray="">π/2</text><text fill="#000000" stroke="none" font-family="Arial" font-size="14px" font-style="normal" font-weight="normal" text-decoration="normal" x="666.6666666666667" y="515.808" text-anchor="middle">π/2</text></g><g class="dcg-svg-axis-value"><text fill="none" stroke="#ffffff" font-family="Arial" font-size="14px" font-style="normal" font-weight="normal" text-decoration="normal" x="833.3333333333334" y="515.808" text-anchor="middle" stroke-miterlimit="2" stroke-width="3" stroke-dasharray="">π</text><text fill="#000000" stroke="none" font-family="Arial" font-size="14px" font-style="normal" font-weight="normal" text-decoration="normal" x="833.3333333333334" y="515.808" text-anchor="middle">π</text></g><g class="dcg-svg-axis-value dcg-svg-offcenter-axis-value"><text fill="none" stroke="#ffffff" font-family="Arial" font-size="14px" font-style="normal" font-weight="normal" text-decoration="normal" x="982.439453125" y="515.808" text-anchor="middle" stroke-miterlimit="2" stroke-width="3" stroke-dasharray="">3π/2</text><text fill="#000000" stroke="none" font-family="Arial" font-size="14px" font-style="normal" font-weight="normal" text-decoration="normal" x="982.439453125" y="515.808" text-anchor="middle">3π/2</text></g><g class="dcg-svg-axis-value dcg-svg-offcenter-axis-value"><text fill="none" stroke="#ffffff" font-family="Arial" font-size="14px" font-style="normal" font-weight="normal" text-decoration="normal" x="488.77587890625" y="993.808" text-anchor="middle" stroke-miterlimit="2" stroke-width="3" stroke-dasharray="">-6</text><text fill="#000000" stroke="none" font-family="Arial" font-size="14px" font-style="normal" font-weight="normal" text-decoration="normal" x="488.77587890625" y="993.808" text-anchor="middle">-6</text></g><g class="dcg-svg-axis-value"><text fill="none" stroke="#ffffff" font-family="Arial" font-size="14px" font-style="normal" font-weight="normal" text-decoration="normal" x="488.77587890625" y="920.4746666666666" text-anchor="middle" stroke-miterlimit="2" stroke-width="3" stroke-dasharray="">-5</text><text fill="#000000" stroke="none" font-family="Arial" font-size="14px" font-style="normal" font-weight="normal" text-decoration="normal" x="488.77587890625" y="920.4746666666666" text-anchor="middle">-5</text></g><g class="dcg-svg-axis-value"><text fill="none" stroke="#ffffff" font-family="Arial" font-size="14px" font-style="normal" font-weight="normal" text-decoration="normal" x="488.77587890625" y="837.1413333333333" text-anchor="middle" stroke-miterlimit="2" stroke-width="3" stroke-dasharray="">-4</text><text fill="#000000" stroke="none" font-family="Arial" font-size="14px" font-style="normal" font-weight="normal" text-decoration="normal" x="488.77587890625" y="837.1413333333333" text-anchor="middle">-4</text></g><g class="dcg-svg-axis-value"><text fill="none" stroke="#ffffff" font-family="Arial" font-size="14px" font-style="normal" font-weight="normal" text-decoration="normal" x="488.77587890625" y="753.808" text-anchor="middle" stroke-miterlimit="2" stroke-width="3" stroke-dasharray="">-3</text><text fill="#000000" stroke="none" font-family="Arial" font-size="14px" font-style="normal" font-weight="normal" text-decoration="normal" x="488.77587890625" y="753.808" text-anchor="middle">-3</text></g><g class="dcg-svg-axis-value"><text fill="none" stroke="#ffffff" font-family="Arial" font-size="14px" font-style="normal" font-weight="normal" text-decoration="normal" x="488.77587890625" y="670.4746666666666" text-anchor="middle" stroke-miterlimit="2" stroke-width="3" stroke-dasharray="">-2</text><text fill="#000000" stroke="none" font-family="Arial" font-size="14px" font-style="normal" font-weight="normal" text-decoration="normal" x="488.77587890625" y="670.4746666666666" text-anchor="middle">-2</text></g><g class="dcg-svg-axis-value"><text fill="none" stroke="#ffffff" font-family="Arial" font-size="14px" font-style="normal" font-weight="normal" text-decoration="normal" x="488.77587890625" y="587.1413333333334" text-anchor="middle" stroke-miterlimit="2" stroke-width="3" stroke-dasharray="">-1</text><text fill="#000000" stroke="none" font-family="Arial" font-size="14px" font-style="normal" font-weight="normal" text-decoration="normal" x="488.77587890625" y="587.1413333333334" text-anchor="middle">-1</text></g><g class="dcg-svg-axis-value"><text fill="none" stroke="#ffffff" font-family="Arial" font-size="14px" font-style="normal" font-weight="normal" text-decoration="normal" x="491.10693359375" y="420.4746666666667" text-anchor="middle" stroke-miterlimit="2" stroke-width="3" stroke-dasharray="">1</text><text fill="#000000" stroke="none" font-family="Arial" font-size="14px" font-style="normal" font-weight="normal" text-decoration="normal" x="491.10693359375" y="420.4746666666667" text-anchor="middle">1</text></g><g class="dcg-svg-axis-value"><text fill="none" stroke="#ffffff" font-family="Arial" font-size="14px" font-style="normal" font-weight="normal" text-decoration="normal" x="491.10693359375" y="337.14133333333336" text-anchor="middle" stroke-miterlimit="2" stroke-width="3" stroke-dasharray="">2</text><text fill="#000000" stroke="none" font-family="Arial" font-size="14px" font-style="normal" font-weight="normal" text-decoration="normal" x="491.10693359375" y="337.14133333333336" text-anchor="middle">2</text></g><g class="dcg-svg-axis-value"><text fill="none" stroke="#ffffff" font-family="Arial" font-size="14px" font-style="normal" font-weight="normal" text-decoration="normal" x="491.10693359375" y="253.808" text-anchor="middle" stroke-miterlimit="2" stroke-width="3" stroke-dasharray="">3</text><text fill="#000000" stroke="none" font-family="Arial" font-size="14px" font-style="normal" font-weight="normal" text-decoration="normal" x="491.10693359375" y="253.808" text-anchor="middle">3</text></g><g class="dcg-svg-axis-value"><text fill="none" stroke="#ffffff" font-family="Arial" font-size="14px" font-style="normal" font-weight="normal" text-decoration="normal" x="491.10693359375" y="170.47466666666668" text-anchor="middle" stroke-miterlimit="2" stroke-width="3" stroke-dasharray="">4</text><text fill="#000000" stroke="none" font-family="Arial" font-size="14px" font-style="normal" font-weight="normal" text-decoration="normal" x="491.10693359375" y="170.47466666666668" text-anchor="middle">4</text></g><g class="dcg-svg-axis-value"><text fill="none" stroke="#ffffff" font-family="Arial" font-size="14px" font-style="normal" font-weight="normal" text-decoration="normal" x="491.10693359375" y="87.14133333333338" text-anchor="middle" stroke-miterlimit="2" stroke-width="3" stroke-dasharray="">5</text><text fill="#000000" stroke="none" font-family="Arial" font-size="14px" font-style="normal" font-weight="normal" text-decoration="normal" x="491.10693359375" y="87.14133333333338" text-anchor="middle">5</text></g><g class="dcg-svg-axis-value dcg-svg-offcenter-axis-value"><text fill="none" stroke="#ffffff" font-family="Arial" font-size="14px" font-style="normal" font-weight="normal" text-decoration="normal" x="491.10693359375" y="13.808" text-anchor="middle" stroke-miterlimit="2" stroke-width="3" stroke-dasharray="">6</text><text fill="#000000" stroke="none" font-family="Arial" font-size="14px" font-style="normal" font-weight="normal" text-decoration="normal" x="491.10693359375" y="13.808" text-anchor="middle">6</text></g></g></g></g><g id="expressions-f837c7cd"><g id="sketch-f837c7cd"><title>Expression 2</title><path fill="#000000" stroke="none" paint-order="stroke fill markers" d="" fill-opacity="0.4"/><g><path fill="none" stroke="#000000" class="dcg-svg-curve" paint-order="fill stroke markers" d=" M 17.3833456205277 1005.5 L 17.3833456205277 1005.5 L 19.04296875 959.3190991529779 L 21.240234375 910.707067725046 L 23.681640625 867.1463954977796 L 26.367187499999943 828.407309260107 L 29.052734375000057 796.6968261653376 L 31.982421875 768.0383921261271 L 34.91210937499994 744.0562508387003 L 38.08593750000006 722.1000506820924 L 41.50390624999994 702.0605985275722 L 44.921875 684.9258014231692 L 48.58398437500006 669.0922520000925 L 52.490234374999886 654.4777843595385 L 56.640624999999886 640.9879359634631 L 61.035156249999886 628.5234096244692 L 65.91796875000006 616.4172127630236 L 71.04492187499994 605.2753431716353 L 76.66015625000006 594.5348051771641 L 82.763671875 584.2329943233508 L 89.59960937500006 574.028969475492 L 97.41210937499994 563.7072928397457 L 105.95703124999994 553.6700986605515 L 115.478515625 543.6426871108622 L 126.220703125 533.3998436822426 L 138.91601562500006 522.3062659933302 L 155.517578125 508.7888443125367 L 198.2421875 474.4416593356665 L 210.69335937499994 463.2900641583045 L 221.19140625 452.9609580651361 L 230.46875 442.826911037928 L 238.76953125000006 432.67307147240956 L 246.33789062500003 422.2293113630446 L 253.173828125 411.52592261064564 L 259.27734375 400.6528171711444 L 264.6484375 389.77297547870216 L 269.53125 378.5364833260746 L 274.169921875 366.37032835348384 L 278.564453125 353.1588223692098 L 282.470703125 339.68472911722904 L 286.1328125 325.19603189299465 L 289.55078125 309.6432518221965 L 292.96875 291.6188424171453 L 296.142578125 272.07153337168046 L 299.072265625 250.9570263324483 L 302.001953125 226.0434115766002 L 304.6875 198.87202655771426 L 307.373046875 166.22876197955082 L 309.814453125 130.2267148311368 L 312.01171875 90.90327519416275 L 314.208984375 42.67815437270406 L 315.98098351239656 -5.5" stroke-linecap="round" stroke-linejoin="round" stroke-miterlimit="10" stroke-width="2.5" stroke-dasharray=""/></g><g><path fill="none" stroke="#000000" class="dcg-svg-curve" paint-order="fill stroke markers" d=" M 350.6876724968238 1005.5 L 350.6876724968238 1005.5 L 350.830078125 1000.758825580939 L 353.02734375 943.7982494856201 L 355.46875 893.635777323525 L 357.91015625 853.3101355017577 L 360.595703125 817.1588014084041 L 363.28125 787.3616468360851 L 366.2109375 760.2721440059427 L 369.384765625 735.7473917787637 L 372.55859375 715.0505201719322 L 375.9765625 696.0608287423393 L 379.638671875 678.6691551769861 L 383.544921875 662.7477328794146 L 387.451171875 648.9631316190762 L 391.845703125 635.4739905166492 L 396.484375 623.075589091542 L 401.3671875 611.6444909578512 L 406.73828125 600.5943773192415 L 412.59765625 589.9831993928458 L 419.189453125 579.461870665425 L 426.51367187500006 569.1419687412192 L 434.814453125 558.7856255164348 L 443.84765625 548.7395202692453 L 453.857421875 538.7120888034874 L 465.33203125 528.2403425880236 L 479.4921875 516.3104127978391 L 501.220703125 499.04121970526523 L 526.3671875 478.85417209473775 L 540.0390625 466.9705051702452 L 551.025390625 456.5200749783394 L 560.546875 446.51057791701675 L 569.091796875 436.49501193241906 L 576.904296875 426.19943107664426 L 583.984375 415.6376861491116 L 590.33203125 404.8784733312166 L 595.947265625 394.0583861041106 L 601.07421875 382.82491337597077 L 605.712890625 371.26038649251325 L 610.107421875 358.76487624049446 L 614.2578125 345.23826013923764 L 618.1640625 330.58016302921004 L 621.826171875 314.6948867070637 L 625.244140625 297.4988855998898 L 628.41796875 278.9315905452089 L 631.591796875 257.1625367297237 L 634.521484375 233.40481841221322 L 637.20703125 207.61494630074992 L 639.892578125 176.79690121273092 L 642.333984375 143.01555679004332 L 644.775390625 101.84494571439376 L 646.97265625 56.20175051437997 L 649.169921875 -0.7588255809389466 L 649.3145816130248 -5.5" stroke-linecap="round" stroke-linejoin="round" stroke-miterlimit="10" stroke-width="2.5" stroke-dasharray=""/></g><g><path fill="none" stroke="#000000" class="dcg-svg-curve" paint-order="fill stroke markers" d=" M 684.0213059085731 1005.5 L 684.0213059085731 1005.5 L 686.03515625 951.4296985436449 L 688.4765625 899.6836404179543 L 690.91796875 858.2253602047608 L 693.603515625 821.1645138398243 L 696.2890625 790.6926671647442 L 699.21875 763.0483611617324 L 702.1484375 739.8376261765613 L 705.322265625 718.5256597982082 L 708.740234375 699.0222474070215 L 712.40234375 681.2024394332612 L 716.064453125 665.8715617855263 L 719.970703125 651.6819632128113 L 724.12109375 638.550842911951 L 728.515625 626.389133538588 L 733.3984375 614.5506183832299 L 738.525390625 603.6320180100919 L 744.140625 593.085691183221 L 750.48828125 582.5698510511972 L 757.568359375 572.2189182539262 L 765.625 561.8042121893362 L 774.4140625 551.7018968423605 L 784.1796875 541.6265274143869 L 795.166015625 531.3401247526832 L 808.349609375 519.9930437871107 L 826.416015625 505.4405587775987 L 861.572265625 477.2822515961959 L 874.755859375 465.7066359115273 L 885.7421875 455.12815731658037 L 895.263671875 444.96330308576654 L 903.80859375 434.7600957985381 L 911.62109375 424.2379038404809 L 918.701171875 413.40798962494983 L 924.8046875 402.7921108406391 L 930.4199218750001 391.684858243924 L 935.546875 380.1199758827492 L 940.185546875 368.17870679972856 L 944.580078125 355.23538115623165 L 948.73046875 341.17605787373486 L 952.392578125 326.908036773561 L 956.0546875000001 310.4353269668991 L 959.47265625 292.54244725715375 L 962.6464843750001 273.1511454060325 L 965.576171875 252.22075978088162 L 968.505859375 227.54521482050023 L 971.1914062500001 200.6591343414048 L 973.876953125 168.39397750671958 L 976.318359375 132.85360450222043 L 978.515625 94.08785445836799 L 980.712890625 46.622644502039805 L 982.6642666491358 -5.5" stroke-linecap="round" stroke-linejoin="round" stroke-miterlimit="10" stroke-width="2.5" stroke-dasharray=""/></g></g><g id="sketch-f837c7cd"><title>Expression 3</title><path fill="#c74440" stroke="none" paint-order="stroke fill markers" d="" fill-opacity="0.4"/><g><path fill="none" stroke="#c74440" class="dcg-svg-curve" paint-order="fill stroke markers" d=" M 666.6666666666667 1000 L 666.6666666666667 989 M 666.6666666666667 982 L 666.6666666666667 971 M 666.6666666666667 964 L 666.6666666666667 953 M 666.6666666666667 946 L 666.6666666666667 935 M 666.6666666666667 928 L 666.6666666666667 917 M 666.6666666666667 910 L 666.6666666666667 899 M 666.6666666666667 892 L 666.6666666666667 881 M 666.6666666666667 874 L 666.6666666666667 863 M 666.6666666666667 856 L 666.6666666666667 845 M 666.6666666666667 838 L 666.6666666666667 827 M 666.6666666666667 820 L 666.6666666666667 809 M 666.6666666666667 802 L 666.6666666666667 791 M 666.6666666666667 784 L 666.6666666666667 773 M 666.6666666666667 766 L 666.6666666666667 755 M 666.6666666666667 748 L 666.6666666666667 737 M 666.6666666666667 730 L 666.6666666666667 719 M 666.6666666666667 712 L 666.6666666666667 701 M 666.6666666666667 694 L 666.6666666666667 683 M 666.6666666666667 676 L 666.6666666666667 665 M 666.6666666666667 658 L 666.6666666666667 647 M 666.6666666666667 640 L 666.6666666666667 629 M 666.6666666666667 622 L 666.6666666666667 611 M 666.6666666666667 604 L 666.6666666666667 593 M 666.6666666666667 586 L 666.6666666666667 575 M 666.6666666666667 568 L 666.6666666666667 557 M 666.6666666666667 550 L 666.6666666666667 539 M 666.6666666666667 532 L 666.6666666666667 521 M 666.6666666666667 514 L 666.6666666666667 503 M 666.6666666666667 496 L 666.6666666666667 485 M 666.6666666666667 478 L 666.6666666666667 467 M 666.6666666666667 460 L 666.6666666666667 449 M 666.6666666666667 442 L 666.6666666666667 431 M 666.6666666666667 424 L 666.6666666666667 413 M 666.6666666666667 406 L 666.6666666666667 395 M 666.6666666666667 388 L 666.6666666666667 377 M 666.6666666666667 370 L 666.6666666666667 359 M 666.6666666666667 352 L 666.6666666666667 341 M 666.6666666666667 334 L 666.6666666666667 323 M 666.6666666666667 316 L 666.6666666666667 305 M 666.6666666666667 298 L 666.6666666666667 287 M 666.6666666666667 280 L 666.6666666666667 269 M 666.6666666666667 262 L 666.6666666666667 251 M 666.6666666666667 244 L 666.6666666666667 233 M 666.6666666666667 226 L 666.6666666666667 215 M 666.6666666666667 208 L 666.6666666666667 197 M 666.6666666666667 190 L 666.6666666666667 179 M 666.6666666666667 172 L 666.6666666666667 161 M 666.6666666666667 154 L 666.6666666666667 143 M 666.6666666666667 136 L 666.6666666666667 125 M 666.6666666666667 118 L 666.6666666666667 107 M 666.6666666666667 100 L 666.6666666666667 89 M 666.6666666666667 82 L 666.6666666666667 71 M 666.6666666666667 64 L 666.6666666666667 53 M 666.6666666666667 46 L 666.6666666666667 35 M 666.6666666666667 28 L 666.6666666666667 17 M 666.6666666666667 10 L 666.6666666666667 0" stroke-linecap="round" stroke-linejoin="round" stroke-miterlimit="10" stroke-width="2.5" stroke-dasharray=""/></g></g><g id="sketch-f837c7cd"><title>Expression 4</title><path fill="#c74440" stroke="none" paint-order="stroke fill markers" d="" fill-opacity="0.4"/><g><path fill="none" stroke="#c74440" class="dcg-svg-curve" paint-order="fill stroke markers" d=" M 333.3333333333333 1000 L 333.3333333333333 989 M 333.3333333333333 982 L 333.3333333333333 971 M 333.3333333333333 964 L 333.3333333333333 953 M 333.3333333333333 946 L 333.3333333333333 935 M 333.3333333333333 928 L 333.3333333333333 917 M 333.3333333333333 910 L 333.3333333333333 899 M 333.3333333333333 892 L 333.3333333333333 881 M 333.3333333333333 874 L 333.3333333333333 863 M 333.3333333333333 856 L 333.3333333333333 845 M 333.3333333333333 838 L 333.3333333333333 827 M 333.3333333333333 820 L 333.3333333333333 809 M 333.3333333333333 802 L 333.3333333333333 791 M 333.3333333333333 784 L 333.3333333333333 773 M 333.3333333333333 766 L 333.3333333333333 755 M 333.3333333333333 748 L 333.3333333333333 737 M 333.3333333333333 730 L 333.3333333333333 719 M 333.3333333333333 712 L 333.3333333333333 701 M 333.3333333333333 694 L 333.3333333333333 683 M 333.3333333333333 676 L 333.3333333333333 665 M 333.3333333333333 658 L 333.3333333333333 647 M 333.3333333333333 640 L 333.3333333333333 629 M 333.3333333333333 622 L 333.3333333333333 611 M 333.3333333333333 604 L 333.3333333333333 593 M 333.3333333333333 586 L 333.3333333333333 575 M 333.3333333333333 568 L 333.3333333333333 557 M 333.3333333333333 550 L 333.3333333333333 539 M 333.3333333333333 532 L 333.3333333333333 521 M 333.3333333333333 514 L 333.3333333333333 503 M 333.3333333333333 496 L 333.3333333333333 485 M 333.3333333333333 478 L 333.3333333333333 467 M 333.3333333333333 460 L 333.3333333333333 449 M 333.3333333333333 442 L 333.3333333333333 431 M 333.3333333333333 424 L 333.3333333333333 413 M 333.3333333333333 406 L 333.3333333333333 395 M 333.3333333333333 388 L 333.3333333333333 377 M 333.3333333333333 370 L 333.3333333333333 359 M 333.3333333333333 352 L 333.3333333333333 341 M 333.3333333333333 334 L 333.3333333333333 323 M 333.3333333333333 316 L 333.3333333333333 305 M 333.3333333333333 298 L 333.3333333333333 287 M 333.3333333333333 280 L 333.3333333333333 269 M 333.3333333333333 262 L 333.3333333333333 251 M 333.3333333333333 244 L 333.3333333333333 233 M 333.3333333333333 226 L 333.3333333333333 215 M 333.3333333333333 208 L 333.3333333333333 197 M 333.3333333333333 190 L 333.3333333333333 179 M 333.3333333333333 172 L 333.3333333333333 161 M 333.3333333333333 154 L 333.3333333333333 143 M 333.3333333333333 136 L 333.3333333333333 125 M 333.3333333333333 118 L 333.3333333333333 107 M 333.3333333333333 100 L 333.3333333333333 89 M 333.3333333333333 82 L 333.3333333333333 71 M 333.3333333333333 64 L 333.3333333333333 53 M 333.3333333333333 46 L 333.3333333333333 35 M 333.3333333333333 28 L 333.3333333333333 17 M 333.3333333333333 10 L 333.3333333333333 0" stroke-linecap="round" stroke-linejoin="round" stroke-miterlimit="10" stroke-width="2.5" stroke-dasharray=""/></g></g><g id="sketch-f837c7cd"><title>Expression 5</title><path fill="#c74440" stroke="none" paint-order="stroke fill markers" d="" fill-opacity="0.4"/><g><path fill="none" stroke="#c74440" class="dcg-svg-curve" paint-order="fill stroke markers" d=" M 1000 1000 L 1000 989 M 1000 982 L 1000 971 M 1000 964 L 1000 953 M 1000 946 L 1000 935 M 1000 928 L 1000 917 M 1000 910 L 1000 899 M 1000 892 L 1000 881 M 1000 874 L 1000 863 M 1000 856 L 1000 845 M 1000 838 L 1000 827 M 1000 820 L 1000 809 M 1000 802 L 1000 791 M 1000 784 L 1000 773 M 1000 766 L 1000 755 M 1000 748 L 1000 737 M 1000 730 L 1000 719 M 1000 712 L 1000 701 M 1000 694 L 1000 683 M 1000 676 L 1000 665 M 1000 658 L 1000 647 M 1000 640 L 1000 629 M 1000 622 L 1000 611 M 1000 604 L 1000 593 M 1000 586 L 1000 575 M 1000 568 L 1000 557 M 1000 550 L 1000 539 M 1000 532 L 1000 521 M 1000 514 L 1000 503 M 1000 496 L 1000 485 M 1000 478 L 1000 467 M 1000 460 L 1000 449 M 1000 442 L 1000 431 M 1000 424 L 1000 413 M 1000 406 L 1000 395 M 1000 388 L 1000 377 M 1000 370 L 1000 359 M 1000 352 L 1000 341 M 1000 334 L 1000 323 M 1000 316 L 1000 305 M 1000 298 L 1000 287 M 1000 280 L 1000 269 M 1000 262 L 1000 251 M 1000 244 L 1000 233 M 1000 226 L 1000 215 M 1000 208 L 1000 197 M 1000 190 L 1000 179 M 1000 172 L 1000 161 M 1000 154 L 1000 143 M 1000 136 L 1000 125 M 1000 118 L 1000 107 M 1000 100 L 1000 89 M 1000 82 L 1000 71 M 1000 64 L 1000 53 M 1000 46 L 1000 35 M 1000 28 L 1000 17 M 1000 10 L 1000 0" stroke-linecap="round" stroke-linejoin="round" stroke-miterlimit="10" stroke-width="2.5" stroke-dasharray=""/></g></g><g id="sketch-f837c7cd"><title>Expression 6</title><path fill="#c74440" stroke="none" paint-order="stroke fill markers" d="" fill-opacity="0.4"/><g><path fill="none" stroke="#c74440" class="dcg-svg-curve" paint-order="fill stroke markers" d=" M 0 1000 L 0 989 M 0 982 L 0 971 M 0 964 L 0 953 M 0 946 L 0 935 M 0 928 L 0 917 M 0 910 L 0 899 M 0 892 L 0 881 M 0 874 L 0 863 M 0 856 L 0 845 M 0 838 L 0 827 M 0 820 L 0 809 M 0 802 L 0 791 M 0 784 L 0 773 M 0 766 L 0 755 M 0 748 L 0 737 M 0 730 L 0 719 M 0 712 L 0 701 M 0 694 L 0 683 M 0 676 L 0 665 M 0 658 L 0 647 M 0 640 L 0 629 M 0 622 L 0 611 M 0 604 L 0 593 M 0 586 L 0 575 M 0 568 L 0 557 M 0 550 L 0 539 M 0 532 L 0 521 M 0 514 L 0 503 M 0 496 L 0 485 M 0 478 L 0 467 M 0 460 L 0 449 M 0 442 L 0 431 M 0 424 L 0 413 M 0 406 L 0 395 M 0 388 L 0 377 M 0 370 L 0 359 M 0 352 L 0 341 M 0 334 L 0 323 M 0 316 L 0 305 M 0 298 L 0 287 M 0 280 L 0 269 M 0 262 L 0 251 M 0 244 L 0 233 M 0 226 L 0 215 M 0 208 L 0 197 M 0 190 L 0 179 M 0 172 L 0 161 M 0 154 L 0 143 M 0 136 L 0 125 M 0 118 L 0 107 M 0 100 L 0 89 M 0 82 L 0 71 M 0 64 L 0 53 M 0 46 L 0 35 M 0 28 L 0 17 M 0 10 L 0 0" stroke-linecap="round" stroke-linejoin="round" stroke-miterlimit="10" stroke-width="2.5" stroke-dasharray=""/></g></g></g><g id="labels-f837c7cd"/><g id="labels-f837c7cd"/></g></svg>